<svg width="100" height="101" viewBox="0 0 100 101" fill="none" xmlns="http://www.w3.org/2000/svg">
<rect width="100" height="100" rx="8" fill="#3681CA"/>
<path d="M49.8343 44.9592C61.3637 44.9592 70.7101 35.6128 70.7101 24.0834C70.7101 12.554 61.3637 3.20752 49.8343 3.20752C38.3049 3.20752 28.9584 12.554 28.9584 24.0834C28.9584 35.6128 38.3049 44.9592 49.8343 44.9592Z" fill="#CA7358"/>
<path d="M73.3996 53.6008H26.269C23.6539 53.6008 21.3792 55.3924 20.7664 57.9347L12.9924 90.183C12.1339 93.7438 14.8324 97.1698 18.495 97.1698H81.1735C84.8362 97.1698 87.5346 93.7438 86.6762 90.183L78.9022 57.9347C78.2894 55.3924 76.0146 53.6008 73.3996 53.6008Z" fill="#B5C1D4"/>
<path d="M57.2554 53.6008H49.8343H42.4128L38.3875 82.0755L49.8343 97.1698L61.2807 82.0755L57.2554 53.6008Z" fill="#CBD7E8"/>
<path d="M49.8343 47.4121C62.906 47.4121 73.5403 36.7777 73.5403 23.706C73.5403 10.6343 62.9056 0 49.8343 0C36.763 0 26.1282 10.6343 26.1282 23.706C26.1282 36.7777 36.7626 47.4121 49.8343 47.4121ZM49.8343 5.66038C59.7848 5.66038 67.8799 13.7555 67.8799 23.706C67.8799 33.6566 59.7848 41.7517 49.8343 41.7517C39.8837 41.7517 31.7886 33.6566 31.7886 23.706C31.7886 13.7555 39.8837 5.66038 49.8343 5.66038Z" fill="#22313F"/>
<path d="M89.4275 89.5196L81.6535 57.2713C80.7309 53.4437 77.3369 50.7705 73.3992 50.7705C68.4614 50.7705 30.6822 50.7705 26.2686 50.7705C22.3313 50.7705 18.9369 53.4437 18.0143 57.2713L10.2403 89.5196C8.95352 94.8584 12.9965 99.9999 18.4947 99.9999H81.1735C86.6648 99.9999 90.7169 94.866 89.4275 89.5196ZM54.7973 56.4309L58.3135 81.3045L49.8343 92.486L41.355 81.3045L44.8713 56.4309H54.7973ZM15.7433 90.8464L23.5173 58.5977C23.8248 57.3218 24.9562 56.4309 26.269 56.4309H39.1543L35.5852 81.6792C35.4796 82.4264 35.6765 83.1845 36.1324 83.7852L44.1362 94.3396H18.4947C16.6645 94.3396 15.3139 92.6279 15.7433 90.8464ZM81.1735 94.3396H55.5324L63.5358 83.7856C63.9916 83.1845 64.1886 82.4264 64.083 81.6796L60.5139 56.4313H73.3992C74.7116 56.4313 75.8433 57.3222 76.1509 58.5984L83.9248 90.8467C84.3539 92.6264 83.0056 94.3396 81.1735 94.3396Z" fill="#22313F"/>
<rect x="49" y="62" width="50" height="35" rx="4" fill="#B5C1D4"/>
<path d="M94.7501 100.182H88.9481C88.1761 100.182 87.55 99.5564 87.55 98.7843C87.55 98.0121 88.1761 97.3861 88.9481 97.3861H94.7501C95.5517 97.3861 96.2038 96.7339 96.2038 95.9324V66.2501C96.2038 65.4484 95.5516 64.7964 94.7501 64.7964H53.2499C52.4483 64.7963 51.7962 65.4484 51.7962 66.2501V95.9325C51.7962 96.7342 52.4484 97.3862 53.2499 97.3862H82.504C83.2761 97.3862 83.9021 98.0122 83.9021 98.7844C83.9021 99.5565 83.2761 100.183 82.504 100.183H53.2499C50.9065 100.182 49 98.2758 49 95.9325V66.2501C49 63.9066 50.9065 62 53.2499 62H94.75C97.0935 62 99 63.9065 99 66.2499V95.9323C99 98.2758 97.0936 100.182 94.7501 100.182Z" fill="#211E48"/>
<path d="M95.9289 68.3333L75.5122 83.9007C74.6191 84.5817 73.3811 84.5817 72.488 83.9007L52.0711 68.3333C50.1731 66.8861 51.1966 63.8562 53.5831 63.8562H94.4167C96.8034 63.8562 97.8269 66.8861 95.9289 68.3333Z" fill="#46759B"/>
<path d="M74 85.8096C73.1523 85.8096 72.3142 85.5266 71.6401 85.0125L51.2232 69.445C49.8738 68.416 49.3527 66.7124 49.8959 65.1046C50.439 63.4968 51.8862 62.458 53.5832 62.458H94.4168C96.1138 62.458 97.5611 63.4968 98.1041 65.1046C98.6472 66.7124 98.1261 68.4161 96.7766 69.445L76.3599 85.0125C75.6858 85.5264 74.8477 85.8096 74 85.8096ZM53.5831 65.2542C52.8533 65.2542 52.604 65.8246 52.545 65.9994C52.486 66.1742 52.3384 66.779 52.9188 67.2215L73.3356 82.789C73.5281 82.9357 73.7579 83.0134 74 83.0134C74.242 83.0134 74.4719 82.9357 74.6644 82.789L95.0811 67.2215C95.6614 66.779 95.5141 66.1743 95.4549 65.9994C95.3959 65.8246 95.1465 65.2542 94.4167 65.2542H53.5831Z" fill="#211E48"/>
<path d="M64.9123 83.2101C64.9123 81.6819 66.6251 80.5992 67.339 79.3652C68.0755 78.0921 68.1818 76.0755 69.455 75.339C70.689 74.625 72.4718 75.5204 73.9999 75.5204C75.528 75.5204 77.3108 74.6249 78.5448 75.3388C79.818 76.0753 79.9243 78.0921 80.6608 79.365C81.3748 80.599 83.0875 81.6817 83.0875 83.2099C83.0875 84.738 81.3747 85.8207 80.6608 87.0547C79.9243 88.3278 79.818 90.3444 78.5448 91.081C77.3108 91.7949 75.528 90.8995 73.9999 90.8995C72.4718 90.8995 70.689 91.795 69.455 91.0812C68.1818 90.3446 68.0755 88.3278 67.339 87.0549C66.6252 85.8209 64.9123 84.7382 64.9123 83.2101Z" fill="#46759B"/>
<path d="M77.3749 92.7555C76.7113 92.7555 76.0651 92.6269 75.44 92.5022C74.9118 92.397 74.4127 92.2976 74 92.2976C73.5873 92.2976 73.0883 92.397 72.56 92.5022C71.935 92.6267 71.2888 92.7555 70.6254 92.7555C69.9066 92.7555 69.2948 92.6036 68.755 92.2913C67.4757 91.5512 67.0122 90.1616 66.6397 89.0449C66.4751 88.5509 66.3193 88.0843 66.1289 87.7551C65.9526 87.4503 65.6362 87.0988 65.3014 86.7268C64.5052 85.8419 63.5142 84.7407 63.5142 83.2102C63.5142 81.6796 64.505 80.5784 65.3012 79.6935C65.6361 79.3214 65.9524 78.9699 66.1287 78.6652C66.3192 78.3359 66.4749 77.8693 66.6396 77.3752C67.012 76.2587 67.4755 74.8689 68.7546 74.1288C69.2944 73.8165 69.9063 73.6646 70.625 73.6646C71.2884 73.6646 71.9346 73.7933 72.5596 73.9179C73.0879 74.023 73.587 74.1224 73.9997 74.1224C74.4124 74.1224 74.9114 74.0229 75.4398 73.9179C76.0648 73.7935 76.711 73.6646 77.3744 73.6646C78.0932 73.6646 78.705 73.8165 79.2448 74.1288C80.5241 74.8689 80.9877 76.2587 81.3601 77.3753C81.5249 77.8692 81.6805 78.3359 81.8709 78.6651C82.0471 78.9698 82.3633 79.3213 82.6983 79.6933C83.4945 80.5781 84.4855 81.6791 84.4855 83.2099C84.4855 84.7406 83.4945 85.8416 82.6983 86.7265C82.3634 87.0986 82.0471 87.4501 81.8708 87.7548C81.6806 88.0839 81.5248 88.5505 81.3603 89.0445C80.9878 90.1612 80.5243 91.5511 79.2449 92.2912C78.7052 92.6036 78.0935 92.7555 77.3749 92.7555ZM74 89.5015C74.6884 89.5015 75.3483 89.6329 75.9863 89.76C76.501 89.8624 76.9869 89.9592 77.3748 89.9592C77.5885 89.9592 77.7422 89.9303 77.8448 89.871C78.2072 89.6613 78.4731 88.8638 78.7079 88.1602C78.9095 87.5554 79.1182 86.9301 79.4507 86.3548C79.7733 85.7971 80.2038 85.3187 80.62 84.8561C81.1458 84.2719 81.6895 83.6678 81.6895 83.2101C81.6895 82.7523 81.1457 82.1482 80.62 81.564C80.2037 81.1014 79.7731 80.623 79.4508 80.0655C79.1179 79.4902 78.9095 78.8649 78.7077 78.2602C78.4731 77.5564 78.207 76.7589 77.8448 76.5493C77.7422 76.4899 77.5884 76.4611 77.3748 76.4611C76.9871 76.4611 76.501 76.5579 75.9863 76.6603C75.3483 76.7874 74.6885 76.9188 74 76.9188C73.3115 76.9188 72.6519 76.7874 72.0137 76.6603C71.499 76.5579 71.0129 76.4611 70.6252 76.4611C70.4115 76.4611 70.2578 76.49 70.155 76.5493C69.7929 76.7589 69.5269 77.5563 69.2922 78.2599C69.0904 78.8648 68.8818 79.4902 68.5489 80.0656C68.2264 80.6231 67.7959 81.1015 67.3797 81.5641C66.854 82.1483 66.3103 82.7524 66.3103 83.2102C66.3103 83.6681 66.854 84.2722 67.3797 84.8564C67.796 85.319 68.2264 85.7973 68.549 86.355C68.8819 86.9303 69.0905 87.5557 69.2921 88.1606C69.5269 88.8644 69.7928 89.6618 70.155 89.8714C70.2576 89.9308 70.4114 89.9596 70.625 89.9596C71.0126 89.9596 71.4988 89.8628 72.0135 89.7602C72.6519 89.6328 73.3116 89.5015 74 89.5015Z" fill="#211E48"/>
</svg>
